<svg width="24" height="24" viewBox="0 0 24 24" fill="none" xmlns="http://www.w3.org/2000/svg">
<path d="M4 10.1088C4 9.41924 4.35524 8.7783 4.94001 8.41282L10.41 4.99409C11.3828 4.38609 12.6172 4.38609 13.59 4.99409L19.06 8.41282C19.6448 8.7783 20 9.41924 20 10.1088V18.0003C20 19.1049 19.1046 20.0003 18 20.0003H14.5C13.9477 20.0003 13.5 19.5526 13.5 19.0003V15.5003C13.5 15.2242 13.2761 15.0003 13 15.0003H11C10.7239 15.0003 10.5 15.2242 10.5 15.5003V19.0003C10.5 19.5526 10.0523 20.0003 9.5 20.0003H6C4.89543 20.0003 4 19.1049 4 18.0003V10.1088Z" fill="#2167AE"/>
</svg>
