<svg width="24" height="24" viewBox="0 0 24 24" fill="none" xmlns="http://www.w3.org/2000/svg">
<path fill-rule="evenodd" clip-rule="evenodd" d="M5.47 9.26082C5.17762 9.44356 5 9.76403 5 10.1088V18.0003C5 18.5526 5.44772 19.0003 6 19.0003H10V15.5003C10 14.6719 10.6716 14.0003 11.5 14.0003H12.5C13.3284 14.0003 14 14.6719 14 15.5003V19.0003H18C18.5523 19.0003 19 18.5526 19 18.0003V10.1088C19 9.76403 18.8224 9.44356 18.53 9.26082L13.06 5.84209C12.4115 5.43675 11.5885 5.43675 10.94 5.84209L5.47 9.26082ZM4.94001 8.41282C4.35524 8.7783 4 9.41924 4 10.1088V18.0003C4 19.1049 4.89543 20.0003 6 20.0003H10C10.5523 20.0003 11 19.5526 11 19.0003V15.5003C11 15.2242 11.2239 15.0003 11.5 15.0003H12.5C12.7761 15.0003 13 15.2242 13 15.5003V19.0003C13 19.5526 13.4477 20.0003 14 20.0003H18C19.1046 20.0003 20 19.1049 20 18.0003V10.1088C20 9.41924 19.6448 8.7783 19.06 8.41282L13.59 4.99409C12.6172 4.38609 11.3828 4.38609 10.41 4.99409L4.94001 8.41282Z" fill="#2167AE"/>
</svg>
