<svg version="1.1" xmlns="http://www.w3.org/2000/svg" width="32" height="32" viewBox="0 0 32 32">
<title>arrow-right--outline</title>
<path fill="#23366f"  stroke="#23366f" stroke-width="3" d="M9.533 3.533c0.267-0.267 0.667-0.267 0.933 0l11.533 11.52c0.244 0.242 0.394 0.577 0.394 0.947s-0.151 0.705-0.394 0.947l-0 0-11.533 11.52c-0.11 0.083-0.249 0.133-0.4 0.133-0.368 0-0.667-0.298-0.667-0.667 0-0.151 0.050-0.29 0.135-0.402l-0.001 0.002 11.52-11.533-11.52-11.533c-0.118-0.12-0.191-0.285-0.191-0.467s0.073-0.346 0.191-0.467l-0 0z"></path>
</svg>

