<svg version="1.1" xmlns="http://www.w3.org/2000/svg" width="32" height="32" viewBox="0 0 32 32">
<title>chemical</title>
<path d="M27.102 27.724l-6.721-16.494c-0.373-0.915-0.562-1.88-0.562-2.869v-4.36c0-0.47 0.182-0.911 0.511-1.243 0.402-0.405 0.624-0.943 0.624-1.516v-0.618c0-0.345-0.278-0.625-0.621-0.625h-8.667c-0.343 0-0.621 0.28-0.621 0.625v0.618c0 0.573 0.221 1.111 0.623 1.516 0.33 0.332 0.511 0.773 0.511 1.243v4.36c0 0.989-0.189 1.954-0.562 2.869l-1.847 4.532c-0.001 0.002-0.001 0.003-0.002 0.005l-4.872 11.957c-0.39 0.958-0.281 2.043 0.291 2.903s1.528 1.373 2.557 1.373h16.509c1.028 0 1.984-0.513 2.557-1.373s0.681-1.945 0.291-2.903v0zM12.767 11.705c0.435-1.066 0.655-2.191 0.655-3.344v-4.36c0-0.803-0.311-1.559-0.875-2.127-0.166-0.167-0.258-0.389-0.26-0.625h7.426c-0.002 0.236-0.094 0.457-0.26 0.625-0.564 0.568-0.875 1.323-0.875 2.127v4.36c0 1.153 0.22 2.278 0.655 3.344l1.499 3.678h-9.463l1.499-3.678zM25.78 29.931c-0.347 0.521-0.903 0.819-1.525 0.819h-16.509c-0.622 0-1.178-0.299-1.526-0.819-0.262-0.393-0.362-0.848-0.294-1.298h1.023c0.343 0 0.621-0.28 0.621-0.625s-0.278-0.625-0.621-0.625h-0.57l0.713-1.75h1.047c0.343 0 0.621-0.28 0.621-0.625s-0.278-0.625-0.621-0.625h-0.538l0.713-1.75h1.077c0.343 0 0.621-0.28 0.621-0.625s-0.278-0.625-0.621-0.625h-0.567l0.713-1.75h1.106c0.343 0 0.621-0.28 0.621-0.625s-0.278-0.625-0.621-0.625h-0.597l0.713-1.75h10.481l4.713 11.566c0.236 0.58 0.173 1.211-0.174 1.732v0z"></path>
</svg>
