<svg fill="#2167AE" version="1.1" xmlns="http://www.w3.org/2000/svg" width="40" height="40" viewBox="0 0 40 40">
    <title>Applications</title>
    <path d="M27.804 8.196l-8-8c-0.26-0.26-0.683-0.26-0.943 0s-0.26 0.683 0 0.943l8 8c0.131 0.129 0.301 0.195 0.472 0.195s0.341-0.065 0.471-0.195c0.26-0.26 0.26-0.683 0-0.943z"></path>
    <path d="M27.333 8h-6.666c-0.368 0-0.667-0.3-0.667-0.667v-6.667c0-0.368-0.299-0.667-0.667-0.667h-13.333c-1.103 0-2 0.897-2 2v28c0 1.103 0.897 2 2 2h20c1.103 0 2-0.897 2-2v-21.333c0-0.368-0.299-0.667-0.667-0.667zM26.667 30c0 0.367-0.299 0.667-0.667 0.667h-20c-0.368 0-0.667-0.3-0.667-0.667v-28c0-0.367 0.299-0.667 0.667-0.667h12.667v6c0 1.103 0.897 2 2 2h6v20.667z"></path>
    <path d="M22 12h-12c-0.368 0-0.667 0.299-0.667 0.667s0.299 0.667 0.667 0.667h12c0.368 0 0.667-0.299 0.667-0.667s-0.299-0.667-0.667-0.667z"></path>
    <path d="M22 17.334h-12c-0.368 0-0.667 0.299-0.667 0.667s0.299 0.667 0.667 0.667h12c0.368 0 0.667-0.299 0.667-0.667s-0.299-0.667-0.667-0.667z"></path>
    <path d="M22 22.666h-12c-0.368 0-0.667 0.299-0.667 0.667s0.299 0.667 0.667 0.667h12c0.368 0 0.667-0.299 0.667-0.667s-0.299-0.667-0.667-0.667z"></path>
</svg>