<svg version="1.1" xmlns="http://www.w3.org/2000/svg" width="32" height="32" viewBox="0 0 32 32">
<title>download</title>
<path d="M30.325 15.336c-0.497 0-0.895 0.398-0.895 0.895v8.136c0 2.213-1.802 4.008-4.008 4.008h-19.625c-2.213 0-4.008-1.802-4.008-4.008v-8.269c0-0.497-0.398-0.894-0.894-0.894s-0.894 0.398-0.894 0.894v8.269c0 3.2 2.604 5.797 5.797 5.797h19.625c3.2 0 5.797-2.604 5.797-5.797v-8.136c0-0.49-0.398-0.895-0.894-0.895z"></path>
<path d="M14.98 23.062c0.172 0.172 0.404 0.265 0.629 0.265s0.457-0.086 0.629-0.265l5.685-5.685c0.351-0.351 0.351-0.914 0-1.265s-0.914-0.351-1.265 0l-4.154 4.161v-18.147c0-0.497-0.398-0.894-0.894-0.894s-0.895 0.398-0.895 0.894v18.147l-4.161-4.161c-0.351-0.351-0.914-0.351-1.265 0s-0.351 0.914 0 1.265l5.691 5.685z"></path>
</svg>
