<svg fill="#2167AE" version="1.1" xmlns="http://www.w3.org/2000/svg" width="40" height="40" viewBox="0 0 40 40">
    <title>faqs</title>
    <path
      strokeLinejoin="miter"
      strokeLinecap="butt"
      strokeMiterlimit="10"
      strokeWidth="0.4848"
      stroke="#2167AE"
      d="M15.968 0.453c-8.598 0-15.515 6.982-15.515 15.515 0 8.598 6.982 15.515 15.515 15.515 8.598 0 15.515-6.982 15.515-15.515 0.065-8.533-6.917-15.515-15.515-15.515zM15.968 30.642c-8.081 0-14.675-6.594-14.675-14.675s6.594-14.675 14.675-14.675 14.675 6.594 14.675 14.675-6.594 14.675-14.675 14.675z"
    ></path>
    <path d="M16.226 6.594c-2.78 0-5.042 1.81-5.754 4.525 0 0.129 0 0.259 0.065 0.323 0.065 0.129 0.194 0.194 0.259 0.194l3.232 0.776c0.194 0.065 0.453-0.065 0.517-0.259 0.259-0.711 0.84-1.422 1.616-1.422 1.164 0 1.616 0.711 1.616 1.422s0 1.616-3.103 1.616c-0.259 0-0.453 0.194-0.453 0.453v4.784c0 0.259 0.194 0.453 0.453 0.453h3.232c0.259 0 0.453-0.194 0.453-0.453v-1.745c2.133-0.517 3.814-2.586 3.814-4.784 0.065-3.491-2.327-5.883-5.947-5.883zM17.842 16.549c-0.194 0-0.388 0.194-0.388 0.453v1.616h-2.327v-3.879c2.521-0.065 3.556-0.84 3.556-2.521 0-1.422-1.034-2.327-2.521-2.327-1.358 0-2.069 1.228-2.327 1.681l-2.392-0.582c0.711-2.069 2.521-3.426 4.719-3.426 3.168 0 5.107 1.939 5.107 5.042 0 1.875-1.487 3.685-3.426 3.943z"></path>{' '}
    <path d="M16.162 20.364c-1.358 0-2.392 1.034-2.392 2.392s1.034 2.392 2.392 2.392 2.392-1.034 2.392-2.392c0.065-1.358-0.97-2.392-2.392-2.392zM16.162 24.242c-0.84 0-1.487-0.646-1.487-1.487s0.646-1.487 1.487-1.487 1.487 0.646 1.487 1.487c0 0.905-0.582 1.487-1.487 1.487z"></path>{' '}
  </svg>