<svg version="1.1" xmlns="http://www.w3.org/2000/svg" width="40" height="40" viewBox="0 0 40 40">
    <path
      fill="#fff"
      strokeLinejoin="miter"
      strokeLinecap="butt"
      strokeMiterlimit="4"
      strokeWidth="1.1852"
      stroke="#2167AE"
      d="M20.286 2.475c-2.382-1.72-5.598-1.72-7.98 0l-8.296 5.992c-1.774 1.281-2.825 3.336-2.825 5.525v11.587c0 3.109 2.52 5.63 5.63 5.63h4.741c1.145 0 2.074-0.929 2.074-2.074v-5.926c0-0.164 0.133-0.296 0.296-0.296h4.741c0.164 0 0.296 0.133 0.296 0.296v5.926c0 1.145 0.929 2.074 2.074 2.074h4.741c3.109 0 5.63-2.52 5.63-5.63v-11.587c0-2.188-1.051-4.243-2.825-5.525l-8.296-5.992z"
    ></path>
  </svg>