<svg version="1.1" xmlns="http://www.w3.org/2000/svg" width="32" height="32" viewBox="0 0 32 32">
<title>bomb</title>
<path d="M25.552 9.695l-0.012 0.006h-3.091c-1.395-0.003-2.525-1.133-2.529-2.529v-3.388c0.011-2.079-1.665-3.774-3.745-3.785-2.004-0.011-3.665 1.55-3.779 3.55-0.001 0.019-0.001 0.037 0 0.056v2.937h-1.947c-0.683 0-1.236 0.554-1.236 1.236v2.739c-5.748 2.088-8.714 8.44-6.627 14.187s8.44 8.714 14.187 6.627 8.714-8.44 6.627-14.187c-1.119-3.081-3.546-5.507-6.627-6.627v-2.751c0-0.683-0.554-1.236-1.236-1.236h-1.904v-2.745c0-1.398 1.133-2.532 2.532-2.532s2.532 1.133 2.532 2.532v3.382c0.003 2.078 1.687 3.762 3.765 3.765h3.091c0.341 0 0.618-0.277 0.618-0.618s-0.277-0.618-0.618-0.618zM22.85 20.898c-0.007 5.432-4.416 9.83-9.848 9.824s-9.83-4.416-9.824-9.848c0.007-5.427 4.408-9.824 9.836-9.824 5.434 0.007 9.836 4.414 9.836 9.848zM15.555 7.785v2.343c-1.673-0.41-3.421-0.41-5.094 0v-2.343h5.094z"></path>
<path d="M25.539 5.77c-0.341 0-0.618 0.277-0.618 0.618v1.935c0 0.341 0.277 0.618 0.618 0.618s0.618-0.277 0.618-0.618v-1.935c0-0.341-0.277-0.618-0.618-0.618z"></path>
<path d="M25.539 11.668c-0.341 0-0.618 0.277-0.618 0.618v1.935c0 0.341 0.277 0.618 0.618 0.618s0.618-0.277 0.618-0.618v-1.935c0-0.341-0.277-0.618-0.618-0.618z"></path>
<path d="M26.961 9.528c-0.002 0-0.004-0-0.006-0s-0.004 0-0.006 0h0.012z"></path>
<path d="M28.686 7.086c-0.231-0.198-0.573-0.198-0.804 0l-1.36 1.385c-0.242 0.24-0.244 0.632-0.004 0.874 0.116 0.116 0.273 0.182 0.436 0.183 0.162-0.001 0.318-0.065 0.433-0.179l1.366-1.391c0.222-0.259 0.192-0.65-0.067-0.872z"></path>
<path d="M28.754 12.65l-1.372-1.36c-0.207-0.272-0.595-0.324-0.866-0.117s-0.324 0.595-0.117 0.866c0.035 0.047 0.077 0.088 0.124 0.123l1.36 1.36c0.259 0.222 0.65 0.192 0.872-0.067 0.198-0.231 0.198-0.573 0-0.804z"></path>
<path d="M29.465 9.702h-1.935c-0.341 0-0.618 0.277-0.618 0.618s0.277 0.618 0.618 0.618h1.935c0.341 0 0.618-0.277 0.618-0.618s-0.277-0.618-0.618-0.618z"></path>
<path d="M11.852 27.587c-3.126-0.003-5.66-2.537-5.663-5.663 0-0.341-0.277-0.618-0.618-0.618s-0.618 0.277-0.618 0.618c0.003 3.809 3.090 6.896 6.899 6.899 0.341 0 0.618-0.277 0.618-0.618s-0.277-0.618-0.618-0.618z"></path>
</svg>
