<svg version="1.1" xmlns="http://www.w3.org/2000/svg" width="32" height="32" viewBox="0 0 32 32">
<title>military</title>
<path d="M1.775 5.491l13.913 6.957c0.195 0.097 0.426 0.097 0.622 0l13.913-6.957c0.236-0.118 0.385-0.359 0.385-0.622v-4.174c0-0.241-0.127-0.465-0.331-0.591s-0.46-0.138-0.676-0.031l-13.602 6.801-13.602-6.801c-0.099-0.049-0.206-0.074-0.312-0.074-0.127 0-0.255 0.035-0.365 0.104-0.205 0.127-0.331 0.351-0.331 0.591v4.174c0 0.263 0.149 0.504 0.384 0.622zM2.782 1.821l12.906 6.453c0.097 0.049 0.203 0.074 0.312 0.074 0.107 0 0.213-0.025 0.312-0.074l12.906-6.453v2.618l-13.218 6.609-13.218-6.609v-2.618z"></path>
<path d="M1.775 15.231l13.913 6.957c0.195 0.097 0.426 0.097 0.622 0l13.913-6.957c0.236-0.118 0.385-0.359 0.385-0.622v-4.174c0-0.241-0.127-0.465-0.331-0.591s-0.46-0.136-0.676-0.031l-13.602 6.801-13.602-6.801c-0.099-0.049-0.206-0.074-0.312-0.074-0.127 0-0.255 0.035-0.365 0.104-0.205 0.127-0.331 0.351-0.331 0.591v4.174c0 0.263 0.149 0.504 0.384 0.622zM2.782 11.56l12.906 6.453c0.097 0.049 0.203 0.074 0.312 0.074 0.107 0 0.213-0.025 0.312-0.074l12.906-6.453v2.618l-13.218 6.609-13.218-6.609v-2.618z"></path>
<path d="M1.775 24.97l13.913 6.957c0.195 0.097 0.426 0.097 0.622 0l13.913-6.957c0.236-0.118 0.385-0.359 0.385-0.622v-4.174c0-0.241-0.127-0.465-0.331-0.591s-0.462-0.136-0.676-0.031l-13.602 6.801-13.602-6.801c-0.099-0.049-0.206-0.074-0.312-0.074-0.127 0-0.255 0.035-0.365 0.104-0.205 0.127-0.331 0.351-0.331 0.591v4.174c0 0.263 0.149 0.504 0.384 0.622zM2.782 21.3l12.906 6.453c0.097 0.049 0.203 0.074 0.312 0.074 0.107 0 0.213-0.025 0.312-0.074l12.906-6.453v2.619l-13.218 6.609-13.218-6.609v-2.619z"></path>
</svg>
