<svg version="1.1" xmlns="http://www.w3.org/2000/svg" width="32" height="32" viewBox="0 0 32 32">
<title>mining</title>
<path d="M24.563 17.217c-0.099-0.011-0.2-0.016-0.299-0.016-1.409 0-2.586 1.058-2.738 2.46-0.163 1.511 0.933 2.873 2.445 3.037 0.099 0.011 0.2 0.016 0.299 0.016 0 0 0 0 0 0 1.409 0 2.586-1.058 2.737-2.46 0.163-1.511-0.933-2.873-2.445-3.037zM26.091 20.155c-0.101 0.933-0.884 1.637-1.821 1.637-0.066 0-0.134-0.004-0.2-0.011-1.006-0.109-1.736-1.015-1.627-2.021 0.101-0.934 0.884-1.638 1.821-1.638 0.066 0 0.134 0.004 0.2 0.011 1.006 0.109 1.736 1.016 1.627 2.021z"></path>
<path d="M8.683 17.201c-0.308 0-0.612 0.052-0.905 0.153-0.696 0.242-1.255 0.74-1.576 1.402s-0.364 1.411-0.123 2.106c0.385 1.108 1.431 1.852 2.604 1.852 0 0 0 0 0 0 0.308 0 0.612-0.052 0.905-0.153 0.696-0.242 1.255-0.74 1.576-1.402s0.364-1.411 0.123-2.106c-0.385-1.108-1.431-1.852-2.604-1.852zM10.334 20.757c-0.214 0.441-0.586 0.772-1.049 0.933-0.195 0.068-0.398 0.102-0.602 0.102h-0c-0.78 0-1.477-0.496-1.733-1.233-0.161-0.463-0.132-0.96 0.082-1.401s0.586-0.772 1.049-0.933c0.195-0.068 0.398-0.102 0.603-0.102 0.78 0 1.477 0.495 1.733 1.233 0.161 0.463 0.132 0.961-0.082 1.401z"></path>
<path d="M31.901 6.625c-0.087-0.111-0.221-0.176-0.362-0.176h-12.439c-0.255 0-0.461 0.206-0.461 0.461l-0.001 1.219h-18.176c-0.255 0-0.461 0.206-0.461 0.461v1.544c0 0.166 0.089 0.319 0.234 0.401l7.075 4c-1.1 0.279-2.1 0.888-2.858 1.763-0.978 1.13-1.456 2.573-1.349 4.064s0.79 2.849 1.92 3.827c1.016 0.879 2.315 1.363 3.657 1.363 0 0 0 0 0 0 1.627 0 3.17-0.705 4.233-1.935 0.462-0.534 0.811-1.139 1.041-1.785h5.041c0.321 0.906 0.872 1.718 1.619 2.363 1.015 0.875 2.311 1.357 3.65 1.357 0 0 0 0 0 0 1.63 0 3.176-0.708 4.239-1.942 0.479-0.556 0.837-1.187 1.065-1.862h1.435c0.255 0 0.461-0.206 0.461-0.461v-7.115c0-0.255-0.206-0.461-0.461-0.461h-1.763v-4.306h1.804c0.213 0 0.398-0.145 0.448-0.352l0.494-2.033c0.033-0.137 0.002-0.283-0.085-0.394zM12.216 23.014c-0.888 1.027-2.177 1.616-3.536 1.616-1.121-0-2.205-0.404-3.054-1.138-0.944-0.816-1.514-1.951-1.604-3.196s0.31-2.45 1.126-3.394c0.888-1.027 2.177-1.616 3.536-1.616 1.121 0 2.205 0.404 3.054 1.138 0.944 0.816 1.514 1.951 1.604 3.196s-0.31 2.45-1.126 3.394zM27.806 23.008c-0.889 1.031-2.179 1.622-3.541 1.622-1.118-0-2.2-0.403-3.048-1.133-0.945-0.815-1.517-1.949-1.609-3.193s0.306-2.451 1.12-3.396c0.889-1.031 2.18-1.622 3.542-1.622 1.118 0 2.2 0.402 3.048 1.133 0.945 0.815 1.517 1.949 1.609 3.193s-0.306 2.451-1.121 3.396zM30.543 14.633v6.193h-0.749c0.065-0.419 0.084-0.848 0.052-1.282-0.11-1.49-0.795-2.848-1.927-3.824-0.571-0.492-1.231-0.86-1.937-1.087h4.561zM25.243 13.711v-2.429l3.076-1.245v3.674l-3.076-0zM30.682 8.482h-7.148c-0.255 0-0.461 0.206-0.461 0.461v4.757c-1.41 0.268-2.688 1.003-3.631 2.098-0.47 0.545-0.84 1.163-1.1 1.823l-2.459-1.48c-0.101-0.061-0.221-0.081-0.336-0.055l-2.385 0.52c-0.239-0.318-0.512-0.613-0.82-0.88-0.965-0.835-2.185-1.312-3.455-1.358l-7.965-4.503v-0.814h3.554v1.746c0 0.255 0.206 0.461 0.461 0.461s0.461-0.206 0.461-0.461v-1.746h1.438v2.932c0 0.255 0.206 0.461 0.461 0.461s0.461-0.206 0.461-0.461v-2.932h1.438v4.009c0 0.255 0.206 0.461 0.461 0.461s0.461-0.206 0.461-0.461v-4.009h1.438v4.748c0 0.255 0.206 0.461 0.461 0.461s0.461-0.206 0.461-0.461v-4.748h1.438v5.847c0 0.255 0.206 0.461 0.461 0.461s0.461-0.206 0.461-0.461v-5.847h1.438v5.847c0 0.255 0.206 0.461 0.461 0.461s0.461-0.206 0.461-0.461v-5.847h1.438v4.945c0 0.255 0.206 0.461 0.461 0.461s0.461-0.206 0.461-0.461l0.001-6.626h11.392l-0.27 1.111z"></path>
</svg>
