<svg version="1.1" xmlns="http://www.w3.org/2000/svg" width="32" height="32" viewBox="0 0 32 32">
<title>nuclear</title>
<path d="M31.98 31.324l-2.151-7.684c-1.037-3.702-1.562-7.528-1.562-11.372 0.334-0.187 0.64-0.418 0.911-0.688 0.581-0.585 1.373-0.914 2.198-0.912h0.624v-1.067h-0.624c-1.108-0.003-2.171 0.437-2.953 1.223-0.582 0.585-1.373 0.913-2.198 0.91h-5.376c0.261-1.538 1.592-2.664 3.152-2.667 0.178 0 0.345-0.089 0.444-0.237 0.567-0.852 1.522-1.364 2.546-1.363h0.744c0.808-0.002 1.593-0.263 2.24-0.747l0.427-0.32c0.462-0.345 1.023-0.532 1.6-0.533v-1.067c-0.808 0.002-1.593 0.263-2.24 0.747l-0.427 0.32c-0.462 0.345-1.023 0.532-1.6 0.533h-0.747c-1.281-0.002-2.489 0.593-3.269 1.609-2.241 0.151-3.982 2.012-3.984 4.258 0 3.844-0.526 7.67-1.562 11.372l-0.022 0.080-0.041-0.149c-1.399-5.072-2.108-10.309-2.108-15.57 0-0.589 0.478-1.067 1.067-1.067h3.733c0.839-0.002 1.629-0.397 2.133-1.067l0.32-0.427c0.303-0.402 0.777-0.639 1.28-0.64 2.65-0.003 4.797-2.15 4.8-4.8h-1.067c-0.002 2.061-1.672 3.731-3.733 3.733-0.839 0.002-1.629 0.397-2.133 1.067l-0.32 0.427c-0.303 0.402-0.777 0.639-1.28 0.64h-3.733c-0.97 0.004-1.815 0.661-2.058 1.6h-9.628c0.261-1.538 1.592-2.664 3.152-2.667h4.8c1.174 0.003 2.285-0.531 3.015-1.45l0.135-0.167c0.529-0.665 1.333-1.052 2.183-1.050 1.178 0 2.133-0.955 2.133-2.133h-1.067c0 0.589-0.477 1.067-1.067 1.067-1.174-0.003-2.285 0.531-3.015 1.45l-0.135 0.167c-0.529 0.665-1.333 1.052-2.183 1.050h-4.8c-2.355 0.003-4.264 1.911-4.267 4.267-0 5.261-0.709 10.498-2.108 15.57l-2.139 7.755c-0.078 0.284 0.088 0.578 0.372 0.656 0.046 0.013 0.094 0.019 0.142 0.019h30.933c0.295 0 0.533-0.239 0.533-0.533 0-0.049-0.007-0.097-0.020-0.144zM20.8 12.801h6.403c0.007 0.533 0.026 1.067 0.053 1.6h-6.51c0.026-0.533 0.045-1.067 0.053-1.6zM5.331 8.534h9.602c0.007 0.533 0.024 1.067 0.043 1.6h-9.685c0.019-0.533 0.036-1.067 0.041-1.6zM1.234 30.934l1.953-7.079c1.137-4.132 1.826-8.374 2.053-12.654h9.787c0.228 4.279 0.916 8.522 2.053 12.654l1.953 7.079h-17.799zM20.14 30.934l-1.44-5.222 0.5-1.785c0.773-2.764 1.268-5.598 1.479-8.46h6.642c0.211 2.862 0.706 5.696 1.479 8.46l1.964 7.007h-10.624z"></path>
</svg>
