<svg width="21" height="21" viewBox="0 0 21 21" fill="none" xmlns="http://www.w3.org/2000/svg">
<path d="M5.06895 16.299H5.79309V12.4973C5.79309 10.0017 7.82461 7.97144 10.3217 7.97144H10.6781C13.1754 7.97144 15.2069 10.0017 15.2069 12.4973V16.299H15.931C16.131 16.299 16.2931 16.461 16.2931 16.6611V19.9197C16.2931 20.1198 16.131 20.2818 15.931 20.2818H5.06895C4.86899 20.2818 4.70688 20.1198 4.70688 19.9197V16.6611C4.70688 16.461 4.86899 16.299 5.06895 16.299ZM14.4827 12.4973C14.4827 10.4009 12.776 8.69557 10.6782 8.69557H10.3218C8.22402 8.69557 6.51733 10.4009 6.51733 12.4973V16.299H14.4827V12.4973ZM5.43102 19.5576H15.569V17.0232H14.8448H6.15516H5.43102V19.5576Z" fill="#23366F"/>
<path d="M10.5 9.78174C12.0971 9.78174 13.3965 11.0812 13.3965 12.6783C13.3965 12.8784 13.2344 13.0404 13.0345 13.0404C12.8345 13.0404 12.6724 12.8784 12.6724 12.6783C12.6724 11.4804 11.6979 10.5059 10.5 10.5059C10.3 10.5059 10.1379 10.3439 10.1379 10.1438C10.1379 9.94374 10.3 9.78174 10.5 9.78174Z" fill="#23366F"/>
<path d="M10.5 6.88519C10.3 6.88519 10.1379 6.72319 10.1379 6.52312V1.08009C10.1379 0.880018 10.3 0.718018 10.5 0.718018C10.7 0.718018 10.8621 0.880018 10.8621 1.08009V6.52312C10.8621 6.72329 10.7 6.88519 10.5 6.88519Z" fill="#23366F"/>
<path d="M5.56272 8.6956C5.47003 8.6956 5.37744 8.66022 5.30669 8.58957L3.00257 6.28526C2.86116 6.14385 2.86116 5.91471 3.00257 5.7733C3.14398 5.63188 3.37312 5.63188 3.51454 5.7733L5.81865 8.0776C5.96007 8.21902 5.96007 8.44815 5.81865 8.58957C5.748 8.66022 5.65541 8.6956 5.56272 8.6956Z" fill="#23366F"/>
<path d="M15.8249 8.58943C15.7541 8.66019 15.6616 8.69547 15.569 8.69547C15.4764 8.69547 15.3837 8.66009 15.313 8.58943C15.1716 8.44802 15.1716 8.21888 15.313 8.07747L17.6171 5.77305C17.7586 5.63164 17.9877 5.63164 18.1291 5.77305C18.2705 5.91447 18.2705 6.1436 18.1291 6.28502L15.8249 8.58943Z" fill="#23366F"/>
<path d="M0.362082 11.592H4.34484C4.54481 11.592 4.70691 11.754 4.70691 11.9541C4.70691 12.1542 4.54481 12.3162 4.34484 12.3162H0.362082C0.162117 12.3162 1.3493e-05 12.1542 1.3493e-05 11.9541C1.3493e-05 11.754 0.162117 11.592 0.362082 11.592Z" fill="#23366F"/>
<path d="M16.6552 11.592H20.6379C20.8379 11.592 21 11.754 21 11.9541C21 12.1542 20.8379 12.3162 20.6379 12.3162H16.6552C16.4552 12.3162 16.2931 12.1542 16.2931 11.9541C16.2931 11.754 16.4552 11.592 16.6552 11.592Z" fill="#23366F"/>
</svg>
