<svg version="1.1" xmlns="http://www.w3.org/2000/svg" width="32" height="32" viewBox="0 0 32 32">
<title>sort</title>
<path d="M8.718 3.081c0-0.51-0.413-0.923-0.923-0.923s-0.923 0.413-0.923 0.923v23.695l-4.919-6.167c-0.318-0.399-0.899-0.464-1.297-0.146s-0.464 0.899-0.146 1.297l6.083 7.626c0.616 0.772 1.789 0.772 2.405 0l6.083-7.625c0.318-0.399 0.253-0.979-0.146-1.297s-0.979-0.253-1.297 0.146l-4.919 6.167v-23.695z" fill="#2167AE"></path>
<path d="M25.128 28.919c0 0.51-0.413 0.923-0.923 0.923s-0.923-0.413-0.923-0.923v-23.695l-4.919 6.167c-0.318 0.399-0.899 0.464-1.297 0.146s-0.464-0.899-0.146-1.297l6.083-7.626c0.616-0.772 1.789-0.772 2.405-0l6.083 7.625c0.318 0.399 0.253 0.979-0.146 1.297s-0.979 0.253-1.297-0.146l-4.919-6.167v23.695z" fill="#2167AE"></path>
</svg>