<svg width="21" height="21" viewBox="0 0 21 21" fill="none" xmlns="http://www.w3.org/2000/svg">
<g clip-path="url(#clip0_12070_5144)">
<path d="M10.5 0C4.70101 0 0 4.70101 0 10.5C0 16.299 4.70101 21 10.5 21C16.299 21 21 16.299 21 10.5C21 4.70101 16.299 0 10.5 0ZM19.655 6.88997H16.9333C16.4083 4.14566 15.2572 2.42196 14.355 1.44329C16.7685 2.47452 18.6871 4.44403 19.655 6.88997ZM16.5789 10.0309C16.5789 11.3101 16.4622 12.4454 16.2721 13.4531H10.8281V7.54622H16.394C16.5103 8.29848 16.5789 9.12325 16.5789 10.0309ZM12.7927 20.0713C12.1592 20.2231 11.5022 20.3132 10.8281 20.3354V14.1094H16.1351C15.176 18.2228 12.9798 19.9324 12.7927 20.0713ZM8.54917 20.0813C8.53972 20.0746 7.58884 19.401 6.6506 17.8351C6.1403 16.9833 5.57379 15.7538 5.19258 14.1094H10.1719V20.3354C9.6456 20.3181 9.12965 20.26 8.62719 20.1628C8.6061 20.1324 8.58135 20.1037 8.54917 20.0813ZM4.74899 10.0309C4.74899 9.12368 4.81031 8.29887 4.91403 7.54622H10.1719V13.4531H5.05526C4.86741 12.4522 4.74899 11.3165 4.74899 10.0309ZM8.04841 0.965377C8.73049 0.789928 9.44157 0.688669 10.1719 0.664584V6.88997H5.01874C5.74015 2.91575 7.68866 1.24343 8.04841 0.965377ZM10.8281 6.88997V0.664584C11.5036 0.686831 12.1619 0.777197 12.7967 0.929545C12.7973 0.929906 12.7976 0.93053 12.7982 0.930858C12.8294 0.949364 15.3868 2.52269 16.2764 6.88997H10.8281ZM6.67498 1.42984C5.87039 2.40391 4.83509 4.13132 4.36426 6.88997H1.34492C2.31692 4.43379 4.24725 2.45753 6.67498 1.42984ZM1.10962 7.54622H4.26467C4.16666 8.30232 4.11036 9.1285 4.11036 10.0309C4.11036 11.3036 4.21949 12.4391 4.3996 13.4531H1.10942C0.815456 12.5204 0.65625 11.5285 0.65625 10.5C0.65625 9.47123 0.815522 8.47911 1.10962 7.54622ZM1.34469 14.1094H4.52996C5.18214 17.0798 6.45425 18.8822 7.31417 19.8117C4.58834 18.8764 2.4003 16.7774 1.34469 14.1094ZM14.179 19.6278C15.03 18.6535 16.1866 16.895 16.7983 14.1094H19.6553C18.6641 16.6145 16.6748 18.6181 14.179 19.6278ZM19.8905 13.4531H16.9286C17.1087 12.4391 17.2179 11.3036 17.2179 10.0309C17.2179 9.12857 17.1548 8.30232 17.0449 7.54622H19.8903C20.1844 8.47911 20.3438 9.47123 20.3438 10.5C20.3438 11.5285 20.1845 12.5204 19.8905 13.4531Z" fill="#23366F"/>
<g clip-path="url(#clip1_12070_5144)">
<path d="M19.8838 3.88376C19.8838 6.99363 16.373 9.87379 16.373 9.87379C16.1679 10.0421 15.8321 10.0421 15.627 9.87379C15.627 9.87379 12.1162 6.99363 12.1162 3.88376C12.1163 1.73881 13.8551 0 16 0C18.1449 0 19.8838 1.73881 19.8838 3.88376Z" fill="#23366F"/>
<path d="M16 5.83759C14.9226 5.83759 14.0461 4.96104 14.0461 3.88366C14.0461 2.80627 14.9226 1.92969 16 1.92969C17.0774 1.92969 17.9539 2.80623 17.9539 3.88362C17.9539 4.961 17.0774 5.83759 16 5.83759Z" fill="white"/>
</g>
</g>
<defs>
<clipPath id="clip0_12070_5144">
<rect width="21" height="21" fill="white"/>
</clipPath>
<clipPath id="clip1_12070_5144">
<rect width="10" height="10" fill="white" transform="translate(11)"/>
</clipPath>
</defs>
</svg>
