<svg version="1.1" xmlns="http://www.w3.org/2000/svg" width="40" height="40" viewBox="0 0 40 40">
    <title>warning_outline</title>
    <path
        d="M30.969 24.567l-12.029-20.834c-0.669-1.159-1.867-1.85-3.205-1.85s-2.536 0.692-3.205 1.85l-12.029 20.834c-0.669 1.159-0.669 2.542 0 3.701s1.867 1.85 3.205 1.85h24.057c1.338 0 2.536-0.692 3.205-1.85s0.669-2.542 0-3.701zM29.372 27.346c-0.336 0.581-0.937 0.928-1.608 0.928h-24.057c-0.671 0-1.272-0.347-1.608-0.928s-0.336-1.275 0-1.857l12.029-20.834c0.336-0.581 0.937-0.928 1.608-0.928s1.272 0.347 1.608 0.928l12.029 20.834c0.336 0.581 0.336 1.275-0 1.857z"
        fill="white"
    ></path>
    <path d="M16.657 11.083h-1.844v9.219h1.844v-9.219z" fill="white"></path>
    <path
        d="M15.735 22.146c-0.678 0-1.229 0.551-1.229 1.229s0.551 1.229 1.229 1.229c0.678 0 1.229-0.551 1.229-1.229s-0.551-1.229-1.229-1.229z"
        fill="white"
    ></path>
</svg>